<mxfile host="app.diagrams.net" modified="2024-06-09T14:45:57.881Z" agent="Mozilla/5.0 (Windows NT 10.0; Win64; x64) AppleWebKit/537.36 (KHTML, like Gecko) Chrome/125.0.0.0 Safari/537.36" etag="OWkDFeDqMtZW0kypv_Eu" version="24.5.2" type="device">
  <diagram name="Page-1" id="PgZtx9AHH7VqVJ4ii6J1">
    <mxGraphModel dx="3553" dy="1763" grid="0" gridSize="10" guides="1" tooltips="1" connect="1" arrows="1" fold="1" page="0" pageScale="1" pageWidth="850" pageHeight="1100" math="0" shadow="0">
      <root>
        <mxCell id="0" />
        <mxCell id="1" parent="0" />
        <mxCell id="6uQcUVv21qF8iPBugZK0-111" value="Главная страница" style="rounded=1;whiteSpace=wrap;html=1;absoluteArcSize=1;arcSize=14;strokeWidth=2;align=left;verticalAlign=top;spacingTop=-7;spacing=11;" parent="1" vertex="1">
          <mxGeometry x="-366" y="821" width="328" height="566" as="geometry" />
        </mxCell>
        <mxCell id="6uQcUVv21qF8iPBugZK0-1" value="Главная:&lt;div&gt;статистика скушанн&lt;/div&gt;" style="rounded=1;whiteSpace=wrap;html=1;" parent="1" vertex="1">
          <mxGeometry x="-1081" y="-43" width="120" height="62" as="geometry" />
        </mxCell>
        <mxCell id="6uQcUVv21qF8iPBugZK0-2" value="Разработать приложение позволяющее отслеживать еду, с возможностью просмотра журнала и его заполнения" style="text;html=1;align=center;verticalAlign=middle;whiteSpace=wrap;rounded=1;fontSize=16;" parent="1" vertex="1">
          <mxGeometry x="-831" y="-53" width="211" height="104" as="geometry" />
        </mxCell>
        <mxCell id="6uQcUVv21qF8iPBugZK0-25" value="&lt;font style=&quot;font-size: 12px;&quot;&gt;Пищевая ценность:&lt;/font&gt;&lt;div&gt;&lt;font style=&quot;font-size: 12px;&quot;&gt;&lt;br&gt;&lt;/font&gt;&lt;div style=&quot;&quot;&gt;&lt;font style=&quot;font-size: 12px;&quot;&gt;жир&lt;/font&gt;&lt;/div&gt;&lt;div style=&quot;&quot;&gt;&lt;font style=&quot;font-size: 12px;&quot;&gt;белок&lt;/font&gt;&lt;/div&gt;&lt;div style=&quot;&quot;&gt;&lt;font style=&quot;font-size: 12px;&quot;&gt;углеводы&lt;/font&gt;&lt;/div&gt;&lt;div style=&quot;&quot;&gt;&lt;font style=&quot;font-size: 12px;&quot;&gt;сахарозы&lt;/font&gt;&lt;/div&gt;&lt;/div&gt;" style="rounded=1;whiteSpace=wrap;html=1;" parent="1" vertex="1">
          <mxGeometry x="12" y="249" width="120" height="94" as="geometry" />
        </mxCell>
        <mxCell id="6uQcUVv21qF8iPBugZK0-26" value="&lt;font style=&quot;font-size: 12px;&quot;&gt;Энергетическая ценность:&lt;/font&gt;&lt;div&gt;&lt;font style=&quot;font-size: 12px;&quot;&gt;&lt;br&gt;&lt;/font&gt;&lt;div style=&quot;&quot;&gt;&lt;font style=&quot;font-size: 12px;&quot;&gt;&amp;nbsp;кДж / ккал&lt;/font&gt;&lt;/div&gt;&lt;/div&gt;" style="rounded=1;whiteSpace=wrap;html=1;" parent="1" vertex="1">
          <mxGeometry x="194" y="249" width="98" height="74" as="geometry" />
        </mxCell>
        <mxCell id="6uQcUVv21qF8iPBugZK0-28" style="edgeStyle=none;curved=1;rounded=1;orthogonalLoop=1;jettySize=auto;html=1;exitX=0.5;exitY=1;exitDx=0;exitDy=0;entryX=0.5;entryY=0;entryDx=0;entryDy=0;fontSize=12;startSize=8;endSize=8;" parent="1" source="6uQcUVv21qF8iPBugZK0-27" target="6uQcUVv21qF8iPBugZK0-25" edge="1">
          <mxGeometry relative="1" as="geometry" />
        </mxCell>
        <mxCell id="6uQcUVv21qF8iPBugZK0-27" value="По ценности" style="rounded=1;whiteSpace=wrap;html=1;" parent="1" vertex="1">
          <mxGeometry x="142" y="187" width="82" height="23" as="geometry" />
        </mxCell>
        <mxCell id="6uQcUVv21qF8iPBugZK0-29" style="edgeStyle=none;curved=1;rounded=1;orthogonalLoop=1;jettySize=auto;html=1;exitX=0.5;exitY=1;exitDx=0;exitDy=0;entryX=0.542;entryY=0.012;entryDx=0;entryDy=0;entryPerimeter=0;fontSize=12;startSize=8;endSize=8;" parent="1" source="6uQcUVv21qF8iPBugZK0-27" target="6uQcUVv21qF8iPBugZK0-26" edge="1">
          <mxGeometry relative="1" as="geometry" />
        </mxCell>
        <mxCell id="6uQcUVv21qF8iPBugZK0-31" style="edgeStyle=none;curved=1;rounded=1;orthogonalLoop=1;jettySize=auto;html=1;exitX=0;exitY=0.5;exitDx=0;exitDy=0;entryX=0.5;entryY=0;entryDx=0;entryDy=0;fontSize=12;startSize=8;endSize=8;" parent="1" source="6uQcUVv21qF8iPBugZK0-30" target="6uQcUVv21qF8iPBugZK0-27" edge="1">
          <mxGeometry relative="1" as="geometry">
            <Array as="points">
              <mxPoint x="183" y="145" />
            </Array>
          </mxGeometry>
        </mxCell>
        <mxCell id="6uQcUVv21qF8iPBugZK0-34" style="edgeStyle=none;curved=1;rounded=1;orthogonalLoop=1;jettySize=auto;html=1;exitX=0.474;exitY=0.967;exitDx=0;exitDy=0;entryX=0.5;entryY=0;entryDx=0;entryDy=0;fontSize=12;startSize=8;endSize=8;exitPerimeter=0;" parent="1" source="6uQcUVv21qF8iPBugZK0-30" target="6uQcUVv21qF8iPBugZK0-33" edge="1">
          <mxGeometry relative="1" as="geometry" />
        </mxCell>
        <mxCell id="6uQcUVv21qF8iPBugZK0-68" style="edgeStyle=none;curved=1;rounded=1;orthogonalLoop=1;jettySize=auto;html=1;exitX=1;exitY=0.5;exitDx=0;exitDy=0;fontSize=12;startSize=8;endSize=8;entryX=0.5;entryY=0;entryDx=0;entryDy=0;" parent="1" source="6uQcUVv21qF8iPBugZK0-30" target="6uQcUVv21qF8iPBugZK0-69" edge="1">
          <mxGeometry relative="1" as="geometry">
            <mxPoint x="821" y="215" as="targetPoint" />
            <Array as="points">
              <mxPoint x="658" y="137" />
            </Array>
          </mxGeometry>
        </mxCell>
        <mxCell id="6uQcUVv21qF8iPBugZK0-30" value="Пища" style="rounded=1;whiteSpace=wrap;html=1;" parent="1" vertex="1">
          <mxGeometry x="459" y="134" width="44" height="22" as="geometry" />
        </mxCell>
        <mxCell id="6uQcUVv21qF8iPBugZK0-45" value="" style="edgeStyle=none;curved=1;rounded=1;orthogonalLoop=1;jettySize=auto;html=1;fontSize=12;startSize=8;endSize=8;" parent="1" source="6uQcUVv21qF8iPBugZK0-33" target="6uQcUVv21qF8iPBugZK0-44" edge="1">
          <mxGeometry relative="1" as="geometry" />
        </mxCell>
        <mxCell id="6uQcUVv21qF8iPBugZK0-46" value="" style="edgeStyle=none;curved=1;rounded=1;orthogonalLoop=1;jettySize=auto;html=1;fontSize=12;startSize=8;endSize=8;" parent="1" source="6uQcUVv21qF8iPBugZK0-33" target="6uQcUVv21qF8iPBugZK0-44" edge="1">
          <mxGeometry relative="1" as="geometry" />
        </mxCell>
        <mxCell id="6uQcUVv21qF8iPBugZK0-47" value="" style="edgeStyle=none;curved=1;rounded=1;orthogonalLoop=1;jettySize=auto;html=1;fontSize=12;startSize=8;endSize=8;" parent="1" source="6uQcUVv21qF8iPBugZK0-33" target="6uQcUVv21qF8iPBugZK0-44" edge="1">
          <mxGeometry relative="1" as="geometry" />
        </mxCell>
        <mxCell id="6uQcUVv21qF8iPBugZK0-49" value="" style="edgeStyle=none;curved=1;rounded=1;orthogonalLoop=1;jettySize=auto;html=1;fontSize=12;startSize=8;endSize=8;entryX=0.5;entryY=0;entryDx=0;entryDy=0;" parent="1" source="6uQcUVv21qF8iPBugZK0-33" target="6uQcUVv21qF8iPBugZK0-48" edge="1">
          <mxGeometry relative="1" as="geometry" />
        </mxCell>
        <mxCell id="6uQcUVv21qF8iPBugZK0-33" value="По времени приёма пищи" style="rounded=1;whiteSpace=wrap;html=1;" parent="1" vertex="1">
          <mxGeometry x="437" y="189" width="86" height="33" as="geometry" />
        </mxCell>
        <mxCell id="6uQcUVv21qF8iPBugZK0-53" style="edgeStyle=none;curved=1;rounded=1;orthogonalLoop=1;jettySize=auto;html=1;exitX=0.5;exitY=1;exitDx=0;exitDy=0;entryX=0.5;entryY=0;entryDx=0;entryDy=0;fontSize=12;startSize=8;endSize=8;" parent="1" source="6uQcUVv21qF8iPBugZK0-44" target="6uQcUVv21qF8iPBugZK0-50" edge="1">
          <mxGeometry relative="1" as="geometry" />
        </mxCell>
        <mxCell id="6uQcUVv21qF8iPBugZK0-54" style="edgeStyle=none;curved=1;rounded=1;orthogonalLoop=1;jettySize=auto;html=1;fontSize=12;startSize=8;endSize=8;" parent="1" source="6uQcUVv21qF8iPBugZK0-44" target="6uQcUVv21qF8iPBugZK0-51" edge="1">
          <mxGeometry relative="1" as="geometry" />
        </mxCell>
        <mxCell id="6uQcUVv21qF8iPBugZK0-44" value="Основные" style="rounded=1;whiteSpace=wrap;html=1;" parent="1" vertex="1">
          <mxGeometry x="326" y="286" width="68" height="29" as="geometry" />
        </mxCell>
        <mxCell id="6uQcUVv21qF8iPBugZK0-64" style="edgeStyle=none;curved=1;rounded=1;orthogonalLoop=1;jettySize=auto;html=1;exitX=0;exitY=0.75;exitDx=0;exitDy=0;fontSize=12;startSize=8;endSize=8;" parent="1" source="6uQcUVv21qF8iPBugZK0-48" target="6uQcUVv21qF8iPBugZK0-62" edge="1">
          <mxGeometry relative="1" as="geometry" />
        </mxCell>
        <mxCell id="6uQcUVv21qF8iPBugZK0-48" value="Промежуточные" style="rounded=1;whiteSpace=wrap;html=1;" parent="1" vertex="1">
          <mxGeometry x="557" y="417" width="120" height="29" as="geometry" />
        </mxCell>
        <mxCell id="6uQcUVv21qF8iPBugZK0-50" value="Завтрак" style="rounded=1;whiteSpace=wrap;html=1;" parent="1" vertex="1">
          <mxGeometry x="154" y="391" width="57" height="20" as="geometry" />
        </mxCell>
        <mxCell id="6uQcUVv21qF8iPBugZK0-51" value="Обед" style="rounded=1;whiteSpace=wrap;html=1;" parent="1" vertex="1">
          <mxGeometry x="329" y="391" width="57" height="20" as="geometry" />
        </mxCell>
        <mxCell id="6uQcUVv21qF8iPBugZK0-52" value="Ужин" style="rounded=1;whiteSpace=wrap;html=1;" parent="1" vertex="1">
          <mxGeometry x="494" y="391" width="57" height="20" as="geometry" />
        </mxCell>
        <mxCell id="6uQcUVv21qF8iPBugZK0-56" style="edgeStyle=none;curved=1;rounded=1;orthogonalLoop=1;jettySize=auto;html=1;exitX=0.5;exitY=1;exitDx=0;exitDy=0;entryX=0.538;entryY=0.045;entryDx=0;entryDy=0;entryPerimeter=0;fontSize=12;startSize=8;endSize=8;" parent="1" source="6uQcUVv21qF8iPBugZK0-44" target="6uQcUVv21qF8iPBugZK0-52" edge="1">
          <mxGeometry relative="1" as="geometry" />
        </mxCell>
        <mxCell id="6uQcUVv21qF8iPBugZK0-62" value="Полдник" style="rounded=1;whiteSpace=wrap;html=1;" parent="1" vertex="1">
          <mxGeometry x="409" y="391" width="57" height="20" as="geometry" />
        </mxCell>
        <mxCell id="6uQcUVv21qF8iPBugZK0-65" value="Перекус" style="rounded=1;whiteSpace=wrap;html=1;" parent="1" vertex="1">
          <mxGeometry x="238" y="391" width="57" height="20" as="geometry" />
        </mxCell>
        <mxCell id="6uQcUVv21qF8iPBugZK0-66" value="" style="endArrow=classic;html=1;rounded=1;fontSize=12;startSize=8;endSize=8;curved=1;exitX=-0.001;exitY=0.843;exitDx=0;exitDy=0;exitPerimeter=0;entryX=1.015;entryY=0.619;entryDx=0;entryDy=0;entryPerimeter=0;" parent="1" source="6uQcUVv21qF8iPBugZK0-48" target="6uQcUVv21qF8iPBugZK0-65" edge="1">
          <mxGeometry width="50" height="50" relative="1" as="geometry">
            <mxPoint x="517" y="759" as="sourcePoint" />
            <mxPoint x="567" y="709" as="targetPoint" />
            <Array as="points">
              <mxPoint x="430" y="551" />
            </Array>
          </mxGeometry>
        </mxCell>
        <mxCell id="6uQcUVv21qF8iPBugZK0-72" value="" style="edgeStyle=none;curved=1;rounded=1;orthogonalLoop=1;jettySize=auto;html=1;fontSize=12;startSize=8;endSize=8;" parent="1" source="6uQcUVv21qF8iPBugZK0-69" target="6uQcUVv21qF8iPBugZK0-71" edge="1">
          <mxGeometry relative="1" as="geometry" />
        </mxCell>
        <mxCell id="6uQcUVv21qF8iPBugZK0-74" style="edgeStyle=none;curved=1;rounded=1;orthogonalLoop=1;jettySize=auto;html=1;exitX=0.5;exitY=1;exitDx=0;exitDy=0;entryX=0.5;entryY=0;entryDx=0;entryDy=0;fontSize=12;startSize=8;endSize=8;" parent="1" source="6uQcUVv21qF8iPBugZK0-69" target="6uQcUVv21qF8iPBugZK0-73" edge="1">
          <mxGeometry relative="1" as="geometry" />
        </mxCell>
        <mxCell id="6uQcUVv21qF8iPBugZK0-69" value="По перечисляемости" style="rounded=1;whiteSpace=wrap;html=1;" parent="1" vertex="1">
          <mxGeometry x="591" y="177" width="128" height="27" as="geometry" />
        </mxCell>
        <mxCell id="6uQcUVv21qF8iPBugZK0-71" value="Перечисляемое&lt;br&gt;&lt;br&gt;(яблоко)" style="rounded=1;whiteSpace=wrap;html=1;" parent="1" vertex="1">
          <mxGeometry x="572" y="256" width="96" height="59" as="geometry" />
        </mxCell>
        <mxCell id="6uQcUVv21qF8iPBugZK0-73" value="Не перечисляемое&lt;br&gt;&lt;br&gt;(крупы)" style="rounded=1;whiteSpace=wrap;html=1;" parent="1" vertex="1">
          <mxGeometry x="755" y="253" width="98" height="65" as="geometry" />
        </mxCell>
        <mxCell id="6uQcUVv21qF8iPBugZK0-114" value="" style="edgeStyle=none;curved=1;rounded=1;orthogonalLoop=1;jettySize=auto;html=1;fontSize=12;startSize=8;endSize=8;" parent="1" source="6uQcUVv21qF8iPBugZK0-110" target="6uQcUVv21qF8iPBugZK0-113" edge="1">
          <mxGeometry relative="1" as="geometry" />
        </mxCell>
        <mxCell id="6uQcUVv21qF8iPBugZK0-115" value="" style="edgeStyle=none;curved=1;rounded=1;orthogonalLoop=1;jettySize=auto;html=1;fontSize=12;startSize=8;endSize=8;" parent="1" source="6uQcUVv21qF8iPBugZK0-110" target="6uQcUVv21qF8iPBugZK0-113" edge="1">
          <mxGeometry relative="1" as="geometry" />
        </mxCell>
        <mxCell id="6uQcUVv21qF8iPBugZK0-208" style="edgeStyle=orthogonalEdgeStyle;rounded=1;orthogonalLoop=1;jettySize=auto;html=1;strokeColor=default;align=center;verticalAlign=middle;fontFamily=Helvetica;fontSize=12;fontColor=default;labelBackgroundColor=default;startSize=8;endArrow=classic;endSize=8;" parent="1" source="6uQcUVv21qF8iPBugZK0-110" target="6uQcUVv21qF8iPBugZK0-207" edge="1">
          <mxGeometry relative="1" as="geometry" />
        </mxCell>
        <mxCell id="6uQcUVv21qF8iPBugZK0-209" style="edgeStyle=orthogonalEdgeStyle;rounded=1;orthogonalLoop=1;jettySize=auto;html=1;entryX=1;entryY=0.5;entryDx=0;entryDy=0;strokeColor=default;align=center;verticalAlign=middle;fontFamily=Helvetica;fontSize=12;fontColor=default;labelBackgroundColor=default;startSize=8;endArrow=classic;endSize=8;" parent="1" source="6uQcUVv21qF8iPBugZK0-110" target="6uQcUVv21qF8iPBugZK0-206" edge="1">
          <mxGeometry relative="1" as="geometry" />
        </mxCell>
        <mxCell id="gYlfex4-lGwqcM3bdDoX-84" style="edgeStyle=orthogonalEdgeStyle;rounded=1;orthogonalLoop=1;jettySize=auto;html=1;exitX=0;exitY=0.5;exitDx=0;exitDy=0;exitPerimeter=0;entryX=1;entryY=0.5;entryDx=0;entryDy=0;strokeColor=default;align=center;verticalAlign=middle;fontFamily=Helvetica;fontSize=11;fontColor=default;labelBackgroundColor=default;endArrow=classic;" parent="1" source="6uQcUVv21qF8iPBugZK0-110" target="gYlfex4-lGwqcM3bdDoX-83" edge="1">
          <mxGeometry relative="1" as="geometry" />
        </mxCell>
        <mxCell id="6uQcUVv21qF8iPBugZK0-110" value="Главная страница" style="strokeWidth=2;html=1;shape=mxgraph.flowchart.start_1;whiteSpace=wrap;rounded=1;" parent="1" vertex="1">
          <mxGeometry x="-316" y="862" width="84" height="41" as="geometry" />
        </mxCell>
        <mxCell id="6uQcUVv21qF8iPBugZK0-118" style="edgeStyle=orthogonalEdgeStyle;rounded=1;orthogonalLoop=1;jettySize=auto;html=1;fontSize=12;startSize=8;endSize=8;elbow=vertical;entryX=0.5;entryY=0;entryDx=0;entryDy=0;curved=0;" parent="1" source="6uQcUVv21qF8iPBugZK0-113" target="6uQcUVv21qF8iPBugZK0-117" edge="1">
          <mxGeometry relative="1" as="geometry" />
        </mxCell>
        <mxCell id="6uQcUVv21qF8iPBugZK0-120" value="Нет" style="edgeLabel;html=1;align=center;verticalAlign=middle;resizable=0;points=[];fontSize=12;rounded=1;" parent="6uQcUVv21qF8iPBugZK0-118" vertex="1" connectable="0">
          <mxGeometry x="-0.1636" y="2" relative="1" as="geometry">
            <mxPoint x="-29" y="10" as="offset" />
          </mxGeometry>
        </mxCell>
        <mxCell id="6uQcUVv21qF8iPBugZK0-113" value="Был ли&lt;div&gt;пользователь на этом сайте ранее?&lt;/div&gt;" style="rhombus;whiteSpace=wrap;html=1;strokeWidth=2;rounded=1;" parent="1" vertex="1">
          <mxGeometry x="-344" y="924" width="140" height="100" as="geometry" />
        </mxCell>
        <mxCell id="6uQcUVv21qF8iPBugZK0-117" value="Показать диалоговое окно, с кратким описанием приложения" style="rounded=1;whiteSpace=wrap;html=1;absoluteArcSize=1;arcSize=14;strokeWidth=2;" parent="1" vertex="1">
          <mxGeometry x="-175" y="988" width="128" height="62" as="geometry" />
        </mxCell>
        <mxCell id="6uQcUVv21qF8iPBugZK0-122" style="edgeStyle=orthogonalEdgeStyle;rounded=1;orthogonalLoop=1;jettySize=auto;html=1;entryX=0.5;entryY=0;entryDx=0;entryDy=0;fontSize=12;startSize=8;endSize=8;curved=0;exitX=0.505;exitY=0.963;exitDx=0;exitDy=0;exitPerimeter=0;" parent="1" source="6uQcUVv21qF8iPBugZK0-113" target="6uQcUVv21qF8iPBugZK0-135" edge="1">
          <mxGeometry relative="1" as="geometry">
            <mxPoint x="-267.00199999999995" y="992.0042857142857" as="sourcePoint" />
            <mxPoint x="-263.51" y="1061.76" as="targetPoint" />
          </mxGeometry>
        </mxCell>
        <mxCell id="6uQcUVv21qF8iPBugZK0-123" value="Да" style="edgeLabel;html=1;align=center;verticalAlign=middle;resizable=0;points=[];fontSize=12;rounded=1;" parent="6uQcUVv21qF8iPBugZK0-122" vertex="1" connectable="0">
          <mxGeometry x="0.2303" y="-2" relative="1" as="geometry">
            <mxPoint x="13" y="-19" as="offset" />
          </mxGeometry>
        </mxCell>
        <mxCell id="6uQcUVv21qF8iPBugZK0-129" style="edgeStyle=orthogonalEdgeStyle;rounded=1;orthogonalLoop=1;jettySize=auto;html=1;entryX=1;entryY=0.5;entryDx=0;entryDy=0;fontSize=12;startSize=8;endSize=8;" parent="1" source="6uQcUVv21qF8iPBugZK0-117" target="6uQcUVv21qF8iPBugZK0-135" edge="1">
          <mxGeometry relative="1" as="geometry">
            <Array as="points">
              <mxPoint x="-196" y="1019" />
              <mxPoint x="-196" y="1132" />
            </Array>
          </mxGeometry>
        </mxCell>
        <mxCell id="6uQcUVv21qF8iPBugZK0-138" style="edgeStyle=orthogonalEdgeStyle;rounded=1;orthogonalLoop=1;jettySize=auto;html=1;exitX=0.5;exitY=1;exitDx=0;exitDy=0;strokeColor=default;align=center;verticalAlign=middle;fontFamily=Helvetica;fontSize=12;fontColor=default;labelBackgroundColor=default;startSize=8;endArrow=classic;endSize=8;" parent="1" source="6uQcUVv21qF8iPBugZK0-135" target="6uQcUVv21qF8iPBugZK0-137" edge="1">
          <mxGeometry relative="1" as="geometry" />
        </mxCell>
        <mxCell id="6uQcUVv21qF8iPBugZK0-141" value="Нет" style="edgeLabel;html=1;align=center;verticalAlign=middle;resizable=0;points=[];fontSize=12;rounded=1;strokeColor=default;strokeWidth=2;fontFamily=Helvetica;fontColor=default;fillColor=default;" parent="6uQcUVv21qF8iPBugZK0-138" vertex="1" connectable="0">
          <mxGeometry x="-0.5393" relative="1" as="geometry">
            <mxPoint x="2" as="offset" />
          </mxGeometry>
        </mxCell>
        <mxCell id="6uQcUVv21qF8iPBugZK0-140" style="edgeStyle=orthogonalEdgeStyle;rounded=1;orthogonalLoop=1;jettySize=auto;html=1;entryX=0.5;entryY=0;entryDx=0;entryDy=0;strokeColor=default;align=center;verticalAlign=middle;fontFamily=Helvetica;fontSize=12;fontColor=default;labelBackgroundColor=default;startSize=8;endArrow=classic;endSize=8;" parent="1" source="6uQcUVv21qF8iPBugZK0-135" target="6uQcUVv21qF8iPBugZK0-139" edge="1">
          <mxGeometry relative="1" as="geometry" />
        </mxCell>
        <mxCell id="6uQcUVv21qF8iPBugZK0-142" value="Да" style="edgeLabel;html=1;align=center;verticalAlign=middle;resizable=0;points=[];fontSize=12;rounded=1;strokeColor=default;strokeWidth=2;fontFamily=Helvetica;fontColor=default;fillColor=default;" parent="6uQcUVv21qF8iPBugZK0-140" vertex="1" connectable="0">
          <mxGeometry x="0.0457" y="1" relative="1" as="geometry">
            <mxPoint as="offset" />
          </mxGeometry>
        </mxCell>
        <mxCell id="6uQcUVv21qF8iPBugZK0-135" value="Есть ли у&lt;div&gt;пользователя&lt;/div&gt;&lt;div&gt;записи&amp;nbsp;&lt;span style=&quot;background-color: initial;&quot;&gt;за этот&lt;/span&gt;&lt;/div&gt;&lt;div&gt;&lt;span style=&quot;background-color: initial;&quot;&gt;день&amp;nbsp;&lt;/span&gt;&lt;span style=&quot;background-color: initial;&quot;&gt;или&lt;/span&gt;&lt;/div&gt;&lt;div&gt;&lt;span style=&quot;background-color: initial;&quot;&gt;неделю?&lt;/span&gt;&lt;/div&gt;" style="rhombus;whiteSpace=wrap;html=1;strokeWidth=2;rounded=1;" parent="1" vertex="1">
          <mxGeometry x="-333.5" y="1071" width="119" height="121" as="geometry" />
        </mxCell>
        <mxCell id="6uQcUVv21qF8iPBugZK0-137" value="Отобразить виджет&lt;br&gt;&quot;Статистики пока нет&quot; и предложить текстово создать приём пищи" style="rounded=1;whiteSpace=wrap;html=1;strokeColor=default;strokeWidth=2;align=center;verticalAlign=middle;fontFamily=Helvetica;fontSize=12;fontColor=default;fillColor=default;" parent="1" vertex="1">
          <mxGeometry x="-199" y="1239" width="145" height="88" as="geometry" />
        </mxCell>
        <mxCell id="6uQcUVv21qF8iPBugZK0-139" value="Отобразить статистику" style="rounded=1;whiteSpace=wrap;html=1;strokeColor=default;strokeWidth=2;align=center;verticalAlign=middle;fontFamily=Helvetica;fontSize=12;fontColor=default;fillColor=default;" parent="1" vertex="1">
          <mxGeometry x="-356" y="1269" width="145" height="28" as="geometry" />
        </mxCell>
        <mxCell id="6uQcUVv21qF8iPBugZK0-143" value="Добавление записи приёма пищи" style="rounded=1;whiteSpace=wrap;html=1;absoluteArcSize=1;arcSize=14;strokeWidth=2;strokeColor=default;align=left;verticalAlign=top;fontFamily=Helvetica;fontSize=12;fontColor=default;fillColor=default;spacingTop=-7;spacing=11;" parent="1" vertex="1">
          <mxGeometry x="-14" y="822" width="300" height="450" as="geometry" />
        </mxCell>
        <mxCell id="6uQcUVv21qF8iPBugZK0-151" value="" style="edgeStyle=orthogonalEdgeStyle;rounded=1;orthogonalLoop=1;jettySize=auto;html=1;strokeColor=default;align=center;verticalAlign=middle;fontFamily=Helvetica;fontSize=12;fontColor=default;labelBackgroundColor=default;startSize=8;endArrow=classic;endSize=8;" parent="1" source="6uQcUVv21qF8iPBugZK0-145" target="6uQcUVv21qF8iPBugZK0-150" edge="1">
          <mxGeometry relative="1" as="geometry" />
        </mxCell>
        <mxCell id="6uQcUVv21qF8iPBugZK0-145" value="Добавление записи&lt;div&gt;приёма пищи&lt;/div&gt;" style="strokeWidth=2;html=1;shape=mxgraph.flowchart.start_1;whiteSpace=wrap;rounded=1;strokeColor=default;align=center;verticalAlign=middle;fontFamily=Helvetica;fontSize=12;fontColor=default;fillColor=default;" parent="1" vertex="1">
          <mxGeometry x="12" y="873" width="100" height="73" as="geometry" />
        </mxCell>
        <mxCell id="6uQcUVv21qF8iPBugZK0-146" style="edgeStyle=orthogonalEdgeStyle;rounded=1;orthogonalLoop=1;jettySize=auto;html=1;exitX=1;exitY=0.5;exitDx=0;exitDy=0;entryX=0;entryY=0.5;entryDx=0;entryDy=0;entryPerimeter=0;strokeColor=default;align=center;verticalAlign=middle;fontFamily=Helvetica;fontSize=12;fontColor=default;labelBackgroundColor=default;startSize=8;endArrow=classic;endSize=8;" parent="1" source="6uQcUVv21qF8iPBugZK0-137" target="6uQcUVv21qF8iPBugZK0-145" edge="1">
          <mxGeometry relative="1" as="geometry">
            <Array as="points">
              <mxPoint x="-28" y="1283" />
              <mxPoint x="-28" y="910" />
            </Array>
          </mxGeometry>
        </mxCell>
        <mxCell id="6uQcUVv21qF8iPBugZK0-176" value="" style="edgeStyle=orthogonalEdgeStyle;rounded=1;orthogonalLoop=1;jettySize=auto;html=1;strokeColor=default;align=center;verticalAlign=middle;fontFamily=Helvetica;fontSize=12;fontColor=default;labelBackgroundColor=default;startSize=8;endArrow=classic;endSize=8;" parent="1" source="6uQcUVv21qF8iPBugZK0-150" target="6uQcUVv21qF8iPBugZK0-175" edge="1">
          <mxGeometry relative="1" as="geometry">
            <Array as="points">
              <mxPoint x="72" y="1010" />
              <mxPoint x="72" y="1010" />
            </Array>
          </mxGeometry>
        </mxCell>
        <mxCell id="6uQcUVv21qF8iPBugZK0-150" value="Ввод продуктов" style="whiteSpace=wrap;html=1;strokeWidth=2;rounded=1;" parent="1" vertex="1">
          <mxGeometry x="2" y="968" width="120" height="36" as="geometry" />
        </mxCell>
        <mxCell id="6uQcUVv21qF8iPBugZK0-157" value="Добавление продукта" style="rounded=1;whiteSpace=wrap;html=1;absoluteArcSize=1;arcSize=14;strokeWidth=2;strokeColor=default;align=left;verticalAlign=top;fontFamily=Helvetica;fontSize=12;fontColor=default;fillColor=default;spacingTop=-7;spacing=11;" parent="1" vertex="1">
          <mxGeometry x="304" y="822" width="334" height="436" as="geometry" />
        </mxCell>
        <mxCell id="6uQcUVv21qF8iPBugZK0-162" value="" style="edgeStyle=orthogonalEdgeStyle;rounded=1;orthogonalLoop=1;jettySize=auto;html=1;strokeColor=default;align=center;verticalAlign=middle;fontFamily=Helvetica;fontSize=12;fontColor=default;labelBackgroundColor=default;startSize=8;endArrow=classic;endSize=8;" parent="1" source="6uQcUVv21qF8iPBugZK0-159" target="6uQcUVv21qF8iPBugZK0-161" edge="1">
          <mxGeometry relative="1" as="geometry" />
        </mxCell>
        <mxCell id="6uQcUVv21qF8iPBugZK0-159" value="Добавление&lt;div&gt;продукта&lt;/div&gt;" style="strokeWidth=2;html=1;shape=mxgraph.flowchart.start_1;whiteSpace=wrap;rounded=1;strokeColor=default;align=center;verticalAlign=middle;fontFamily=Helvetica;fontSize=12;fontColor=default;fillColor=default;" parent="1" vertex="1">
          <mxGeometry x="320" y="863" width="88" height="61" as="geometry" />
        </mxCell>
        <mxCell id="6uQcUVv21qF8iPBugZK0-160" style="edgeStyle=orthogonalEdgeStyle;rounded=1;orthogonalLoop=1;jettySize=auto;html=1;entryX=0;entryY=0.5;entryDx=0;entryDy=0;entryPerimeter=0;strokeColor=default;align=center;verticalAlign=middle;fontFamily=Helvetica;fontSize=12;fontColor=default;labelBackgroundColor=default;startSize=8;endArrow=classic;endSize=8;jumpStyle=none;" parent="1" source="6uQcUVv21qF8iPBugZK0-150" target="6uQcUVv21qF8iPBugZK0-159" edge="1">
          <mxGeometry relative="1" as="geometry">
            <Array as="points">
              <mxPoint x="277" y="986" />
              <mxPoint x="277" y="894" />
            </Array>
          </mxGeometry>
        </mxCell>
        <mxCell id="6uQcUVv21qF8iPBugZK0-164" value="" style="edgeStyle=orthogonalEdgeStyle;rounded=1;orthogonalLoop=1;jettySize=auto;html=1;strokeColor=default;align=center;verticalAlign=middle;fontFamily=Helvetica;fontSize=12;fontColor=default;labelBackgroundColor=default;startSize=8;endArrow=classic;endSize=8;entryX=0.5;entryY=0;entryDx=0;entryDy=0;entryPerimeter=0;" parent="1" source="6uQcUVv21qF8iPBugZK0-161" target="6uQcUVv21qF8iPBugZK0-194" edge="1">
          <mxGeometry relative="1" as="geometry">
            <mxPoint x="383.5" y="1090" as="targetPoint" />
          </mxGeometry>
        </mxCell>
        <mxCell id="6uQcUVv21qF8iPBugZK0-165" value="Да" style="edgeLabel;html=1;align=center;verticalAlign=middle;resizable=0;points=[];fontSize=12;rounded=1;strokeColor=default;strokeWidth=2;fontFamily=Helvetica;fontColor=default;fillColor=default;" parent="6uQcUVv21qF8iPBugZK0-164" vertex="1" connectable="0">
          <mxGeometry x="-0.6499" relative="1" as="geometry">
            <mxPoint x="8" y="-22" as="offset" />
          </mxGeometry>
        </mxCell>
        <mxCell id="6uQcUVv21qF8iPBugZK0-169" value="" style="edgeStyle=orthogonalEdgeStyle;rounded=1;orthogonalLoop=1;jettySize=auto;html=1;strokeColor=default;align=center;verticalAlign=middle;fontFamily=Helvetica;fontSize=12;fontColor=default;labelBackgroundColor=default;startSize=8;endArrow=classic;endSize=8;exitX=0.964;exitY=0.501;exitDx=0;exitDy=0;exitPerimeter=0;" parent="1" source="6uQcUVv21qF8iPBugZK0-161" target="6uQcUVv21qF8iPBugZK0-166" edge="1">
          <mxGeometry relative="1" as="geometry" />
        </mxCell>
        <mxCell id="6uQcUVv21qF8iPBugZK0-170" value="Нет" style="edgeLabel;html=1;align=center;verticalAlign=middle;resizable=0;points=[];fontSize=12;rounded=1;strokeColor=default;strokeWidth=2;fontFamily=Helvetica;fontColor=default;fillColor=default;" parent="6uQcUVv21qF8iPBugZK0-169" vertex="1" connectable="0">
          <mxGeometry x="-0.686" y="1" relative="1" as="geometry">
            <mxPoint x="5" y="-8" as="offset" />
          </mxGeometry>
        </mxCell>
        <mxCell id="6uQcUVv21qF8iPBugZK0-161" value="Имя продукта существует?" style="rhombus;whiteSpace=wrap;html=1;strokeWidth=2;rounded=1;" parent="1" vertex="1">
          <mxGeometry x="320" y="965" width="127" height="80" as="geometry" />
        </mxCell>
        <mxCell id="6uQcUVv21qF8iPBugZK0-166" value="Вывести диалоговое окно.&lt;div&gt;&quot;Имя продукта уже занято&quot;&lt;/div&gt;" style="whiteSpace=wrap;html=1;strokeWidth=2;rounded=1;" parent="1" vertex="1">
          <mxGeometry x="484" y="968" width="130" height="73" as="geometry" />
        </mxCell>
        <mxCell id="6uQcUVv21qF8iPBugZK0-171" style="edgeStyle=orthogonalEdgeStyle;rounded=1;orthogonalLoop=1;jettySize=auto;html=1;entryX=0.5;entryY=1;entryDx=0;entryDy=0;strokeColor=default;align=center;verticalAlign=middle;fontFamily=Helvetica;fontSize=12;fontColor=default;labelBackgroundColor=default;startSize=8;endArrow=classic;endSize=8;exitX=1;exitY=0.5;exitDx=0;exitDy=0;exitPerimeter=0;" parent="1" source="6uQcUVv21qF8iPBugZK0-194" target="6uQcUVv21qF8iPBugZK0-197" edge="1">
          <mxGeometry relative="1" as="geometry">
            <Array as="points">
              <mxPoint x="624" y="1202" />
              <mxPoint x="624" y="1168" />
              <mxPoint x="533" y="1168" />
            </Array>
          </mxGeometry>
        </mxCell>
        <mxCell id="6uQcUVv21qF8iPBugZK0-196" value="Нет" style="edgeLabel;html=1;align=center;verticalAlign=middle;resizable=0;points=[];fontSize=12;rounded=1;strokeColor=default;strokeWidth=2;fontFamily=Helvetica;fontColor=default;fillColor=default;" parent="6uQcUVv21qF8iPBugZK0-171" vertex="1" connectable="0">
          <mxGeometry x="-0.9331" relative="1" as="geometry">
            <mxPoint x="-2" y="-10" as="offset" />
          </mxGeometry>
        </mxCell>
        <mxCell id="6uQcUVv21qF8iPBugZK0-172" style="edgeStyle=orthogonalEdgeStyle;rounded=1;orthogonalLoop=1;jettySize=auto;html=1;entryX=1;entryY=0.5;entryDx=0;entryDy=0;entryPerimeter=0;strokeColor=default;align=center;verticalAlign=middle;fontFamily=Helvetica;fontSize=12;fontColor=default;labelBackgroundColor=default;startSize=8;endArrow=classic;endSize=8;" parent="1" source="6uQcUVv21qF8iPBugZK0-166" target="6uQcUVv21qF8iPBugZK0-159" edge="1">
          <mxGeometry relative="1" as="geometry">
            <Array as="points">
              <mxPoint x="549" y="894" />
            </Array>
          </mxGeometry>
        </mxCell>
        <mxCell id="6uQcUVv21qF8iPBugZK0-178" value="" style="edgeStyle=orthogonalEdgeStyle;rounded=1;orthogonalLoop=1;jettySize=auto;html=1;strokeColor=default;align=center;verticalAlign=middle;fontFamily=Helvetica;fontSize=12;fontColor=default;labelBackgroundColor=default;startSize=8;endArrow=classic;endSize=8;" parent="1" source="6uQcUVv21qF8iPBugZK0-175" target="6uQcUVv21qF8iPBugZK0-177" edge="1">
          <mxGeometry relative="1" as="geometry" />
        </mxCell>
        <mxCell id="6uQcUVv21qF8iPBugZK0-179" value="Да" style="edgeLabel;html=1;align=center;verticalAlign=middle;resizable=0;points=[];fontSize=12;rounded=1;strokeColor=default;strokeWidth=2;fontFamily=Helvetica;fontColor=default;fillColor=default;" parent="6uQcUVv21qF8iPBugZK0-178" vertex="1" connectable="0">
          <mxGeometry x="-0.5834" relative="1" as="geometry">
            <mxPoint x="10" y="-1" as="offset" />
          </mxGeometry>
        </mxCell>
        <mxCell id="6uQcUVv21qF8iPBugZK0-183" value="" style="edgeStyle=orthogonalEdgeStyle;rounded=1;orthogonalLoop=1;jettySize=auto;html=1;strokeColor=default;align=center;verticalAlign=middle;fontFamily=Helvetica;fontSize=12;fontColor=default;labelBackgroundColor=default;startSize=8;endArrow=classic;endSize=8;" parent="1" source="6uQcUVv21qF8iPBugZK0-175" target="6uQcUVv21qF8iPBugZK0-182" edge="1">
          <mxGeometry relative="1" as="geometry" />
        </mxCell>
        <mxCell id="6uQcUVv21qF8iPBugZK0-184" value="Нет" style="edgeLabel;html=1;align=center;verticalAlign=middle;resizable=0;points=[];fontSize=12;rounded=1;strokeColor=default;strokeWidth=2;fontFamily=Helvetica;fontColor=default;fillColor=default;" parent="6uQcUVv21qF8iPBugZK0-183" vertex="1" connectable="0">
          <mxGeometry x="-0.8051" y="-1" relative="1" as="geometry">
            <mxPoint y="-10" as="offset" />
          </mxGeometry>
        </mxCell>
        <mxCell id="6uQcUVv21qF8iPBugZK0-175" value="Перечисляемое?" style="rhombus;whiteSpace=wrap;html=1;strokeWidth=2;rounded=1;" parent="1" vertex="1">
          <mxGeometry x="1" y="1026" width="144" height="80" as="geometry" />
        </mxCell>
        <mxCell id="6uQcUVv21qF8iPBugZK0-190" style="edgeStyle=orthogonalEdgeStyle;rounded=1;orthogonalLoop=1;jettySize=auto;html=1;exitX=0.5;exitY=1;exitDx=0;exitDy=0;entryX=0.5;entryY=0;entryDx=0;entryDy=0;strokeColor=default;align=center;verticalAlign=middle;fontFamily=Helvetica;fontSize=12;fontColor=default;labelBackgroundColor=default;startSize=8;endArrow=classic;endSize=8;" parent="1" source="6uQcUVv21qF8iPBugZK0-177" target="6uQcUVv21qF8iPBugZK0-187" edge="1">
          <mxGeometry relative="1" as="geometry" />
        </mxCell>
        <mxCell id="6uQcUVv21qF8iPBugZK0-177" value="Запросить кол-во" style="whiteSpace=wrap;html=1;strokeWidth=2;rounded=1;" parent="1" vertex="1">
          <mxGeometry x="13" y="1146" width="120" height="29" as="geometry" />
        </mxCell>
        <mxCell id="6uQcUVv21qF8iPBugZK0-188" style="edgeStyle=orthogonalEdgeStyle;rounded=1;orthogonalLoop=1;jettySize=auto;html=1;exitX=0.5;exitY=1;exitDx=0;exitDy=0;entryX=0.5;entryY=0;entryDx=0;entryDy=0;strokeColor=default;align=center;verticalAlign=middle;fontFamily=Helvetica;fontSize=12;fontColor=default;labelBackgroundColor=default;startSize=8;endArrow=classic;endSize=8;" parent="1" source="6uQcUVv21qF8iPBugZK0-182" target="6uQcUVv21qF8iPBugZK0-187" edge="1">
          <mxGeometry relative="1" as="geometry" />
        </mxCell>
        <mxCell id="6uQcUVv21qF8iPBugZK0-182" value="Запросить граммовку" style="whiteSpace=wrap;html=1;strokeWidth=2;rounded=1;" parent="1" vertex="1">
          <mxGeometry x="150" y="1145" width="120" height="30" as="geometry" />
        </mxCell>
        <mxCell id="6uQcUVv21qF8iPBugZK0-186" style="edgeStyle=orthogonalEdgeStyle;rounded=1;orthogonalLoop=1;jettySize=auto;html=1;strokeColor=default;align=center;verticalAlign=middle;fontFamily=Helvetica;fontSize=12;fontColor=default;labelBackgroundColor=default;startSize=8;endArrow=classic;endSize=8;" parent="1" source="6uQcUVv21qF8iPBugZK0-150" target="6uQcUVv21qF8iPBugZK0-150" edge="1">
          <mxGeometry relative="1" as="geometry" />
        </mxCell>
        <mxCell id="6uQcUVv21qF8iPBugZK0-187" value="Закрыть диалоговое окно добавления записи" style="rounded=1;whiteSpace=wrap;html=1;absoluteArcSize=1;arcSize=14;strokeWidth=2;strokeColor=default;align=center;verticalAlign=middle;fontFamily=Helvetica;fontSize=12;fontColor=default;fillColor=default;" parent="1" vertex="1">
          <mxGeometry x="52.5" y="1210" width="167" height="48" as="geometry" />
        </mxCell>
        <mxCell id="6uQcUVv21qF8iPBugZK0-193" value="Выбор продуктов" style="rounded=1;whiteSpace=wrap;html=1;absoluteArcSize=1;arcSize=14;strokeWidth=2;strokeColor=default;align=left;verticalAlign=top;fontFamily=Helvetica;fontSize=12;fontColor=default;fillColor=default;spacingTop=-7;spacing=11;" parent="1" vertex="1">
          <mxGeometry x="304" y="1269" width="207" height="90" as="geometry" />
        </mxCell>
        <mxCell id="6uQcUVv21qF8iPBugZK0-194" value="Пользователь&lt;div&gt;пришёл&amp;nbsp;&lt;span style=&quot;background-color: initial;&quot;&gt;с окна&amp;nbsp;&lt;/span&gt;&lt;span style=&quot;background-color: initial;&quot;&gt;выбора&lt;/span&gt;&lt;/div&gt;&lt;div&gt;&lt;span style=&quot;background-color: initial;&quot;&gt;продукта&lt;/span&gt;&lt;span style=&quot;background-color: initial;&quot;&gt;?&lt;/span&gt;&lt;/div&gt;" style="strokeWidth=2;html=1;shape=mxgraph.flowchart.decision;whiteSpace=wrap;rounded=1;strokeColor=default;align=center;verticalAlign=middle;fontFamily=Helvetica;fontSize=12;fontColor=default;fillColor=default;" parent="1" vertex="1">
          <mxGeometry x="379" y="1156" width="154" height="92" as="geometry" />
        </mxCell>
        <mxCell id="6uQcUVv21qF8iPBugZK0-197" value="Вывести диалоговое окно &quot;Продукт добавлен&quot; и очистить поля" style="whiteSpace=wrap;html=1;strokeWidth=2;rounded=1;" parent="1" vertex="1">
          <mxGeometry x="470" y="1072" width="126" height="70" as="geometry" />
        </mxCell>
        <mxCell id="6uQcUVv21qF8iPBugZK0-198" style="edgeStyle=orthogonalEdgeStyle;rounded=1;orthogonalLoop=1;jettySize=auto;html=1;exitX=1;exitY=0.5;exitDx=0;exitDy=0;entryX=1;entryY=0.5;entryDx=0;entryDy=0;entryPerimeter=0;strokeColor=default;align=center;verticalAlign=middle;fontFamily=Helvetica;fontSize=12;fontColor=default;labelBackgroundColor=default;startSize=8;endArrow=classic;endSize=8;" parent="1" source="6uQcUVv21qF8iPBugZK0-197" target="6uQcUVv21qF8iPBugZK0-159" edge="1">
          <mxGeometry relative="1" as="geometry">
            <Array as="points">
              <mxPoint x="626" y="1107" />
              <mxPoint x="626" y="893" />
            </Array>
          </mxGeometry>
        </mxCell>
        <mxCell id="6uQcUVv21qF8iPBugZK0-200" value="Выбор&lt;div&gt;продуктов&lt;/div&gt;" style="strokeWidth=2;html=1;shape=mxgraph.flowchart.start_1;whiteSpace=wrap;rounded=1;strokeColor=default;align=center;verticalAlign=middle;fontFamily=Helvetica;fontSize=12;fontColor=default;fillColor=default;" parent="1" vertex="1">
          <mxGeometry x="419" y="1297" width="74" height="50" as="geometry" />
        </mxCell>
        <mxCell id="6uQcUVv21qF8iPBugZK0-201" style="edgeStyle=orthogonalEdgeStyle;rounded=1;orthogonalLoop=1;jettySize=auto;html=1;exitX=0.5;exitY=1;exitDx=0;exitDy=0;exitPerimeter=0;entryX=0.5;entryY=0;entryDx=0;entryDy=0;entryPerimeter=0;strokeColor=default;align=center;verticalAlign=middle;fontFamily=Helvetica;fontSize=12;fontColor=default;labelBackgroundColor=default;startSize=8;endArrow=classic;endSize=8;" parent="1" source="6uQcUVv21qF8iPBugZK0-194" target="6uQcUVv21qF8iPBugZK0-200" edge="1">
          <mxGeometry relative="1" as="geometry" />
        </mxCell>
        <mxCell id="6uQcUVv21qF8iPBugZK0-202" value="Да" style="edgeLabel;html=1;align=center;verticalAlign=middle;resizable=0;points=[];fontSize=12;rounded=1;strokeColor=default;strokeWidth=2;fontFamily=Helvetica;fontColor=default;fillColor=default;" parent="6uQcUVv21qF8iPBugZK0-201" vertex="1" connectable="0">
          <mxGeometry x="-0.6028" relative="1" as="geometry">
            <mxPoint x="10" y="-4" as="offset" />
          </mxGeometry>
        </mxCell>
        <mxCell id="6uQcUVv21qF8iPBugZK0-204" style="edgeStyle=orthogonalEdgeStyle;rounded=1;orthogonalLoop=1;jettySize=auto;html=1;exitX=1;exitY=0.5;exitDx=0;exitDy=0;strokeColor=default;align=center;verticalAlign=middle;fontFamily=Helvetica;fontSize=12;fontColor=default;labelBackgroundColor=default;startSize=8;endArrow=classic;endSize=8;jumpStyle=none;entryX=0;entryY=0.5;entryDx=0;entryDy=0;entryPerimeter=0;" parent="1" source="6uQcUVv21qF8iPBugZK0-150" target="6uQcUVv21qF8iPBugZK0-200" edge="1">
          <mxGeometry relative="1" as="geometry">
            <mxPoint x="430" y="1316" as="targetPoint" />
            <Array as="points">
              <mxPoint x="276" y="986" />
              <mxPoint x="276" y="1322" />
            </Array>
          </mxGeometry>
        </mxCell>
        <mxCell id="6uQcUVv21qF8iPBugZK0-206" value="Список продуктов" style="rounded=1;whiteSpace=wrap;html=1;absoluteArcSize=1;arcSize=14;strokeWidth=2;strokeColor=default;align=left;verticalAlign=top;fontFamily=Helvetica;fontSize=12;fontColor=default;fillColor=default;spacingTop=-7;spacing=11;" parent="1" vertex="1">
          <mxGeometry x="-470" y="926" width="83" height="90" as="geometry" />
        </mxCell>
        <mxCell id="6uQcUVv21qF8iPBugZK0-207" value="История" style="rounded=1;whiteSpace=wrap;html=1;absoluteArcSize=1;arcSize=14;strokeWidth=2;strokeColor=default;align=left;verticalAlign=top;fontFamily=Helvetica;fontSize=12;fontColor=default;fillColor=default;spacingTop=-7;spacing=11;" parent="1" vertex="1">
          <mxGeometry x="-470" y="822" width="84" height="90" as="geometry" />
        </mxCell>
        <mxCell id="gYlfex4-lGwqcM3bdDoX-2" value="Foods" style="shape=table;startSize=30;container=1;collapsible=1;childLayout=tableLayout;fixedRows=1;rowLines=0;fontStyle=1;align=center;resizeLast=1;html=1;" parent="1" vertex="1">
          <mxGeometry x="754" y="822" width="185" height="270" as="geometry" />
        </mxCell>
        <mxCell id="gYlfex4-lGwqcM3bdDoX-3" value="" style="shape=tableRow;horizontal=0;startSize=0;swimlaneHead=0;swimlaneBody=0;fillColor=none;collapsible=0;dropTarget=0;points=[[0,0.5],[1,0.5]];portConstraint=eastwest;top=0;left=0;right=0;bottom=1;" parent="gYlfex4-lGwqcM3bdDoX-2" vertex="1">
          <mxGeometry y="30" width="185" height="30" as="geometry" />
        </mxCell>
        <mxCell id="gYlfex4-lGwqcM3bdDoX-4" value="PK" style="shape=partialRectangle;connectable=0;fillColor=none;top=0;left=0;bottom=0;right=0;fontStyle=1;overflow=hidden;whiteSpace=wrap;html=1;" parent="gYlfex4-lGwqcM3bdDoX-3" vertex="1">
          <mxGeometry width="30" height="30" as="geometry">
            <mxRectangle width="30" height="30" as="alternateBounds" />
          </mxGeometry>
        </mxCell>
        <mxCell id="gYlfex4-lGwqcM3bdDoX-5" value="id : int" style="shape=partialRectangle;connectable=0;fillColor=none;top=0;left=0;bottom=0;right=0;align=left;spacingLeft=6;fontStyle=5;overflow=hidden;whiteSpace=wrap;html=1;" parent="gYlfex4-lGwqcM3bdDoX-3" vertex="1">
          <mxGeometry x="30" width="155" height="30" as="geometry">
            <mxRectangle width="155" height="30" as="alternateBounds" />
          </mxGeometry>
        </mxCell>
        <mxCell id="gYlfex4-lGwqcM3bdDoX-9" value="" style="shape=tableRow;horizontal=0;startSize=0;swimlaneHead=0;swimlaneBody=0;fillColor=none;collapsible=0;dropTarget=0;points=[[0,0.5],[1,0.5]];portConstraint=eastwest;top=0;left=0;right=0;bottom=0;" parent="gYlfex4-lGwqcM3bdDoX-2" vertex="1">
          <mxGeometry y="60" width="185" height="30" as="geometry" />
        </mxCell>
        <mxCell id="gYlfex4-lGwqcM3bdDoX-10" value="" style="shape=partialRectangle;connectable=0;fillColor=none;top=0;left=0;bottom=0;right=0;editable=1;overflow=hidden;whiteSpace=wrap;html=1;" parent="gYlfex4-lGwqcM3bdDoX-9" vertex="1">
          <mxGeometry width="30" height="30" as="geometry">
            <mxRectangle width="30" height="30" as="alternateBounds" />
          </mxGeometry>
        </mxCell>
        <mxCell id="gYlfex4-lGwqcM3bdDoX-11" value="isEnumerable : boolean" style="shape=partialRectangle;connectable=0;fillColor=none;top=0;left=0;bottom=0;right=0;align=left;spacingLeft=6;overflow=hidden;whiteSpace=wrap;html=1;" parent="gYlfex4-lGwqcM3bdDoX-9" vertex="1">
          <mxGeometry x="30" width="155" height="30" as="geometry">
            <mxRectangle width="155" height="30" as="alternateBounds" />
          </mxGeometry>
        </mxCell>
        <mxCell id="gYlfex4-lGwqcM3bdDoX-12" value="" style="shape=tableRow;horizontal=0;startSize=0;swimlaneHead=0;swimlaneBody=0;fillColor=none;collapsible=0;dropTarget=0;points=[[0,0.5],[1,0.5]];portConstraint=eastwest;top=0;left=0;right=0;bottom=0;" parent="gYlfex4-lGwqcM3bdDoX-2" vertex="1">
          <mxGeometry y="90" width="185" height="30" as="geometry" />
        </mxCell>
        <mxCell id="gYlfex4-lGwqcM3bdDoX-13" value="" style="shape=partialRectangle;connectable=0;fillColor=none;top=0;left=0;bottom=0;right=0;editable=1;overflow=hidden;whiteSpace=wrap;html=1;" parent="gYlfex4-lGwqcM3bdDoX-12" vertex="1">
          <mxGeometry width="30" height="30" as="geometry">
            <mxRectangle width="30" height="30" as="alternateBounds" />
          </mxGeometry>
        </mxCell>
        <mxCell id="gYlfex4-lGwqcM3bdDoX-14" value="fat : double" style="shape=partialRectangle;connectable=0;fillColor=none;top=0;left=0;bottom=0;right=0;align=left;spacingLeft=6;overflow=hidden;whiteSpace=wrap;html=1;" parent="gYlfex4-lGwqcM3bdDoX-12" vertex="1">
          <mxGeometry x="30" width="155" height="30" as="geometry">
            <mxRectangle width="155" height="30" as="alternateBounds" />
          </mxGeometry>
        </mxCell>
        <mxCell id="gYlfex4-lGwqcM3bdDoX-45" value="" style="shape=tableRow;horizontal=0;startSize=0;swimlaneHead=0;swimlaneBody=0;fillColor=none;collapsible=0;dropTarget=0;points=[[0,0.5],[1,0.5]];portConstraint=eastwest;top=0;left=0;right=0;bottom=0;" parent="gYlfex4-lGwqcM3bdDoX-2" vertex="1">
          <mxGeometry y="120" width="185" height="30" as="geometry" />
        </mxCell>
        <mxCell id="gYlfex4-lGwqcM3bdDoX-46" value="" style="shape=partialRectangle;connectable=0;fillColor=none;top=0;left=0;bottom=0;right=0;editable=1;overflow=hidden;" parent="gYlfex4-lGwqcM3bdDoX-45" vertex="1">
          <mxGeometry width="30" height="30" as="geometry">
            <mxRectangle width="30" height="30" as="alternateBounds" />
          </mxGeometry>
        </mxCell>
        <mxCell id="gYlfex4-lGwqcM3bdDoX-47" value="protein : double" style="shape=partialRectangle;connectable=0;fillColor=none;top=0;left=0;bottom=0;right=0;align=left;spacingLeft=6;overflow=hidden;" parent="gYlfex4-lGwqcM3bdDoX-45" vertex="1">
          <mxGeometry x="30" width="155" height="30" as="geometry">
            <mxRectangle width="155" height="30" as="alternateBounds" />
          </mxGeometry>
        </mxCell>
        <mxCell id="gYlfex4-lGwqcM3bdDoX-57" value="" style="shape=tableRow;horizontal=0;startSize=0;swimlaneHead=0;swimlaneBody=0;fillColor=none;collapsible=0;dropTarget=0;points=[[0,0.5],[1,0.5]];portConstraint=eastwest;top=0;left=0;right=0;bottom=0;" parent="gYlfex4-lGwqcM3bdDoX-2" vertex="1">
          <mxGeometry y="150" width="185" height="30" as="geometry" />
        </mxCell>
        <mxCell id="gYlfex4-lGwqcM3bdDoX-58" value="" style="shape=partialRectangle;connectable=0;fillColor=none;top=0;left=0;bottom=0;right=0;editable=1;overflow=hidden;" parent="gYlfex4-lGwqcM3bdDoX-57" vertex="1">
          <mxGeometry width="30" height="30" as="geometry">
            <mxRectangle width="30" height="30" as="alternateBounds" />
          </mxGeometry>
        </mxCell>
        <mxCell id="gYlfex4-lGwqcM3bdDoX-59" value="carbohydrates : double" style="shape=partialRectangle;connectable=0;fillColor=none;top=0;left=0;bottom=0;right=0;align=left;spacingLeft=6;overflow=hidden;" parent="gYlfex4-lGwqcM3bdDoX-57" vertex="1">
          <mxGeometry x="30" width="155" height="30" as="geometry">
            <mxRectangle width="155" height="30" as="alternateBounds" />
          </mxGeometry>
        </mxCell>
        <mxCell id="gYlfex4-lGwqcM3bdDoX-48" value="" style="shape=tableRow;horizontal=0;startSize=0;swimlaneHead=0;swimlaneBody=0;fillColor=none;collapsible=0;dropTarget=0;points=[[0,0.5],[1,0.5]];portConstraint=eastwest;top=0;left=0;right=0;bottom=0;" parent="gYlfex4-lGwqcM3bdDoX-2" vertex="1">
          <mxGeometry y="180" width="185" height="30" as="geometry" />
        </mxCell>
        <mxCell id="gYlfex4-lGwqcM3bdDoX-49" value="" style="shape=partialRectangle;connectable=0;fillColor=none;top=0;left=0;bottom=0;right=0;editable=1;overflow=hidden;" parent="gYlfex4-lGwqcM3bdDoX-48" vertex="1">
          <mxGeometry width="30" height="30" as="geometry">
            <mxRectangle width="30" height="30" as="alternateBounds" />
          </mxGeometry>
        </mxCell>
        <mxCell id="gYlfex4-lGwqcM3bdDoX-50" value="sucrose : double" style="shape=partialRectangle;connectable=0;fillColor=none;top=0;left=0;bottom=0;right=0;align=left;spacingLeft=6;overflow=hidden;" parent="gYlfex4-lGwqcM3bdDoX-48" vertex="1">
          <mxGeometry x="30" width="155" height="30" as="geometry">
            <mxRectangle width="155" height="30" as="alternateBounds" />
          </mxGeometry>
        </mxCell>
        <mxCell id="gYlfex4-lGwqcM3bdDoX-54" value="" style="shape=tableRow;horizontal=0;startSize=0;swimlaneHead=0;swimlaneBody=0;fillColor=none;collapsible=0;dropTarget=0;points=[[0,0.5],[1,0.5]];portConstraint=eastwest;top=0;left=0;right=0;bottom=0;" parent="gYlfex4-lGwqcM3bdDoX-2" vertex="1">
          <mxGeometry y="210" width="185" height="30" as="geometry" />
        </mxCell>
        <mxCell id="gYlfex4-lGwqcM3bdDoX-55" value="" style="shape=partialRectangle;connectable=0;fillColor=none;top=0;left=0;bottom=0;right=0;editable=1;overflow=hidden;" parent="gYlfex4-lGwqcM3bdDoX-54" vertex="1">
          <mxGeometry width="30" height="30" as="geometry">
            <mxRectangle width="30" height="30" as="alternateBounds" />
          </mxGeometry>
        </mxCell>
        <mxCell id="gYlfex4-lGwqcM3bdDoX-56" value="kilojoules : double" style="shape=partialRectangle;connectable=0;fillColor=none;top=0;left=0;bottom=0;right=0;align=left;spacingLeft=6;overflow=hidden;" parent="gYlfex4-lGwqcM3bdDoX-54" vertex="1">
          <mxGeometry x="30" width="155" height="30" as="geometry">
            <mxRectangle width="155" height="30" as="alternateBounds" />
          </mxGeometry>
        </mxCell>
        <mxCell id="gYlfex4-lGwqcM3bdDoX-78" value="" style="shape=tableRow;horizontal=0;startSize=0;swimlaneHead=0;swimlaneBody=0;fillColor=none;collapsible=0;dropTarget=0;points=[[0,0.5],[1,0.5]];portConstraint=eastwest;top=0;left=0;right=0;bottom=0;fontFamily=Helvetica;fontSize=11;fontColor=default;labelBackgroundColor=default;" parent="gYlfex4-lGwqcM3bdDoX-2" vertex="1">
          <mxGeometry y="240" width="185" height="30" as="geometry" />
        </mxCell>
        <mxCell id="gYlfex4-lGwqcM3bdDoX-79" value="" style="shape=partialRectangle;connectable=0;fillColor=none;top=0;left=0;bottom=0;right=0;fontStyle=0;overflow=hidden;whiteSpace=wrap;html=1;fontFamily=Helvetica;fontSize=11;fontColor=default;labelBackgroundColor=default;" parent="gYlfex4-lGwqcM3bdDoX-78" vertex="1">
          <mxGeometry width="30" height="30" as="geometry">
            <mxRectangle width="30" height="30" as="alternateBounds" />
          </mxGeometry>
        </mxCell>
        <mxCell id="gYlfex4-lGwqcM3bdDoX-80" value="&lt;font style=&quot;font-size: 12px;&quot;&gt;image : blob&lt;/font&gt;" style="shape=partialRectangle;connectable=0;fillColor=none;top=0;left=0;bottom=0;right=0;align=left;spacingLeft=6;fontStyle=0;overflow=hidden;whiteSpace=wrap;html=1;fontFamily=Helvetica;fontSize=11;fontColor=default;labelBackgroundColor=default;" parent="gYlfex4-lGwqcM3bdDoX-78" vertex="1">
          <mxGeometry x="30" width="155" height="30" as="geometry">
            <mxRectangle width="155" height="30" as="alternateBounds" />
          </mxGeometry>
        </mxCell>
        <mxCell id="gYlfex4-lGwqcM3bdDoX-19" value="Meal Schedules" style="shape=table;startSize=30;container=1;collapsible=1;childLayout=tableLayout;fixedRows=1;rowLines=0;fontStyle=1;align=center;resizeLast=1;html=1;" parent="1" vertex="1">
          <mxGeometry x="1103" y="822" width="180" height="210" as="geometry" />
        </mxCell>
        <mxCell id="gYlfex4-lGwqcM3bdDoX-20" value="" style="shape=tableRow;horizontal=0;startSize=0;swimlaneHead=0;swimlaneBody=0;fillColor=none;collapsible=0;dropTarget=0;points=[[0,0.5],[1,0.5]];portConstraint=eastwest;top=0;left=0;right=0;bottom=1;" parent="gYlfex4-lGwqcM3bdDoX-19" vertex="1">
          <mxGeometry y="30" width="180" height="30" as="geometry" />
        </mxCell>
        <mxCell id="gYlfex4-lGwqcM3bdDoX-21" value="PK" style="shape=partialRectangle;connectable=0;fillColor=none;top=0;left=0;bottom=0;right=0;fontStyle=1;overflow=hidden;whiteSpace=wrap;html=1;" parent="gYlfex4-lGwqcM3bdDoX-20" vertex="1">
          <mxGeometry width="30" height="30" as="geometry">
            <mxRectangle width="30" height="30" as="alternateBounds" />
          </mxGeometry>
        </mxCell>
        <mxCell id="gYlfex4-lGwqcM3bdDoX-22" value="id : int" style="shape=partialRectangle;connectable=0;fillColor=none;top=0;left=0;bottom=0;right=0;align=left;spacingLeft=6;fontStyle=5;overflow=hidden;whiteSpace=wrap;html=1;" parent="gYlfex4-lGwqcM3bdDoX-20" vertex="1">
          <mxGeometry x="30" width="150" height="30" as="geometry">
            <mxRectangle width="150" height="30" as="alternateBounds" />
          </mxGeometry>
        </mxCell>
        <mxCell id="gYlfex4-lGwqcM3bdDoX-23" value="" style="shape=tableRow;horizontal=0;startSize=0;swimlaneHead=0;swimlaneBody=0;fillColor=none;collapsible=0;dropTarget=0;points=[[0,0.5],[1,0.5]];portConstraint=eastwest;top=0;left=0;right=0;bottom=0;" parent="gYlfex4-lGwqcM3bdDoX-19" vertex="1">
          <mxGeometry y="60" width="180" height="30" as="geometry" />
        </mxCell>
        <mxCell id="gYlfex4-lGwqcM3bdDoX-24" value="" style="shape=partialRectangle;connectable=0;fillColor=none;top=0;left=0;bottom=0;right=0;editable=1;overflow=hidden;whiteSpace=wrap;html=1;" parent="gYlfex4-lGwqcM3bdDoX-23" vertex="1">
          <mxGeometry width="30" height="30" as="geometry">
            <mxRectangle width="30" height="30" as="alternateBounds" />
          </mxGeometry>
        </mxCell>
        <mxCell id="gYlfex4-lGwqcM3bdDoX-25" value="startHours : int" style="shape=partialRectangle;connectable=0;fillColor=none;top=0;left=0;bottom=0;right=0;align=left;spacingLeft=6;overflow=hidden;whiteSpace=wrap;html=1;" parent="gYlfex4-lGwqcM3bdDoX-23" vertex="1">
          <mxGeometry x="30" width="150" height="30" as="geometry">
            <mxRectangle width="150" height="30" as="alternateBounds" />
          </mxGeometry>
        </mxCell>
        <mxCell id="gYlfex4-lGwqcM3bdDoX-29" value="" style="shape=tableRow;horizontal=0;startSize=0;swimlaneHead=0;swimlaneBody=0;fillColor=none;collapsible=0;dropTarget=0;points=[[0,0.5],[1,0.5]];portConstraint=eastwest;top=0;left=0;right=0;bottom=0;" parent="gYlfex4-lGwqcM3bdDoX-19" vertex="1">
          <mxGeometry y="90" width="180" height="30" as="geometry" />
        </mxCell>
        <mxCell id="gYlfex4-lGwqcM3bdDoX-30" value="" style="shape=partialRectangle;connectable=0;fillColor=none;top=0;left=0;bottom=0;right=0;editable=1;overflow=hidden;whiteSpace=wrap;html=1;" parent="gYlfex4-lGwqcM3bdDoX-29" vertex="1">
          <mxGeometry width="30" height="30" as="geometry">
            <mxRectangle width="30" height="30" as="alternateBounds" />
          </mxGeometry>
        </mxCell>
        <mxCell id="gYlfex4-lGwqcM3bdDoX-31" value="startMinutes : int" style="shape=partialRectangle;connectable=0;fillColor=none;top=0;left=0;bottom=0;right=0;align=left;spacingLeft=6;overflow=hidden;whiteSpace=wrap;html=1;" parent="gYlfex4-lGwqcM3bdDoX-29" vertex="1">
          <mxGeometry x="30" width="150" height="30" as="geometry">
            <mxRectangle width="150" height="30" as="alternateBounds" />
          </mxGeometry>
        </mxCell>
        <mxCell id="gYlfex4-lGwqcM3bdDoX-26" value="" style="shape=tableRow;horizontal=0;startSize=0;swimlaneHead=0;swimlaneBody=0;fillColor=none;collapsible=0;dropTarget=0;points=[[0,0.5],[1,0.5]];portConstraint=eastwest;top=0;left=0;right=0;bottom=0;" parent="gYlfex4-lGwqcM3bdDoX-19" vertex="1">
          <mxGeometry y="120" width="180" height="30" as="geometry" />
        </mxCell>
        <mxCell id="gYlfex4-lGwqcM3bdDoX-27" value="" style="shape=partialRectangle;connectable=0;fillColor=none;top=0;left=0;bottom=0;right=0;editable=1;overflow=hidden;whiteSpace=wrap;html=1;" parent="gYlfex4-lGwqcM3bdDoX-26" vertex="1">
          <mxGeometry width="30" height="30" as="geometry">
            <mxRectangle width="30" height="30" as="alternateBounds" />
          </mxGeometry>
        </mxCell>
        <mxCell id="gYlfex4-lGwqcM3bdDoX-28" value="endHours : int" style="shape=partialRectangle;connectable=0;fillColor=none;top=0;left=0;bottom=0;right=0;align=left;spacingLeft=6;overflow=hidden;whiteSpace=wrap;html=1;" parent="gYlfex4-lGwqcM3bdDoX-26" vertex="1">
          <mxGeometry x="30" width="150" height="30" as="geometry">
            <mxRectangle width="150" height="30" as="alternateBounds" />
          </mxGeometry>
        </mxCell>
        <mxCell id="gYlfex4-lGwqcM3bdDoX-34" value="" style="shape=tableRow;horizontal=0;startSize=0;swimlaneHead=0;swimlaneBody=0;fillColor=none;collapsible=0;dropTarget=0;points=[[0,0.5],[1,0.5]];portConstraint=eastwest;top=0;left=0;right=0;bottom=0;" parent="gYlfex4-lGwqcM3bdDoX-19" vertex="1">
          <mxGeometry y="150" width="180" height="30" as="geometry" />
        </mxCell>
        <mxCell id="gYlfex4-lGwqcM3bdDoX-35" value="" style="shape=partialRectangle;connectable=0;fillColor=none;top=0;left=0;bottom=0;right=0;editable=1;overflow=hidden;" parent="gYlfex4-lGwqcM3bdDoX-34" vertex="1">
          <mxGeometry width="30" height="30" as="geometry">
            <mxRectangle width="30" height="30" as="alternateBounds" />
          </mxGeometry>
        </mxCell>
        <mxCell id="gYlfex4-lGwqcM3bdDoX-36" value="endMinutes : int" style="shape=partialRectangle;connectable=0;fillColor=none;top=0;left=0;bottom=0;right=0;align=left;spacingLeft=6;overflow=hidden;" parent="gYlfex4-lGwqcM3bdDoX-34" vertex="1">
          <mxGeometry x="30" width="150" height="30" as="geometry">
            <mxRectangle width="150" height="30" as="alternateBounds" />
          </mxGeometry>
        </mxCell>
        <mxCell id="gYlfex4-lGwqcM3bdDoX-37" value="" style="shape=tableRow;horizontal=0;startSize=0;swimlaneHead=0;swimlaneBody=0;fillColor=none;collapsible=0;dropTarget=0;points=[[0,0.5],[1,0.5]];portConstraint=eastwest;top=0;left=0;right=0;bottom=0;" parent="gYlfex4-lGwqcM3bdDoX-19" vertex="1">
          <mxGeometry y="180" width="180" height="30" as="geometry" />
        </mxCell>
        <mxCell id="gYlfex4-lGwqcM3bdDoX-38" value="" style="shape=partialRectangle;connectable=0;fillColor=none;top=0;left=0;bottom=0;right=0;editable=1;overflow=hidden;" parent="gYlfex4-lGwqcM3bdDoX-37" vertex="1">
          <mxGeometry width="30" height="30" as="geometry">
            <mxRectangle width="30" height="30" as="alternateBounds" />
          </mxGeometry>
        </mxCell>
        <mxCell id="gYlfex4-lGwqcM3bdDoX-39" value="name : string" style="shape=partialRectangle;connectable=0;fillColor=none;top=0;left=0;bottom=0;right=0;align=left;spacingLeft=6;overflow=hidden;" parent="gYlfex4-lGwqcM3bdDoX-37" vertex="1">
          <mxGeometry x="30" width="150" height="30" as="geometry">
            <mxRectangle width="150" height="30" as="alternateBounds" />
          </mxGeometry>
        </mxCell>
        <mxCell id="gYlfex4-lGwqcM3bdDoX-60" value="FoodRecords" style="shape=table;startSize=30;container=1;collapsible=1;childLayout=tableLayout;fixedRows=1;rowLines=0;fontStyle=1;align=center;resizeLast=1;html=1;" parent="1" vertex="1">
          <mxGeometry x="980" y="1072" width="180" height="120" as="geometry" />
        </mxCell>
        <mxCell id="gYlfex4-lGwqcM3bdDoX-61" value="" style="shape=tableRow;horizontal=0;startSize=0;swimlaneHead=0;swimlaneBody=0;fillColor=none;collapsible=0;dropTarget=0;points=[[0,0.5],[1,0.5]];portConstraint=eastwest;top=0;left=0;right=0;bottom=1;" parent="gYlfex4-lGwqcM3bdDoX-60" vertex="1">
          <mxGeometry y="30" width="180" height="30" as="geometry" />
        </mxCell>
        <mxCell id="gYlfex4-lGwqcM3bdDoX-62" value="PK" style="shape=partialRectangle;connectable=0;fillColor=none;top=0;left=0;bottom=0;right=0;fontStyle=1;overflow=hidden;whiteSpace=wrap;html=1;" parent="gYlfex4-lGwqcM3bdDoX-61" vertex="1">
          <mxGeometry width="30" height="30" as="geometry">
            <mxRectangle width="30" height="30" as="alternateBounds" />
          </mxGeometry>
        </mxCell>
        <mxCell id="gYlfex4-lGwqcM3bdDoX-63" value="date : string" style="shape=partialRectangle;connectable=0;fillColor=none;top=0;left=0;bottom=0;right=0;align=left;spacingLeft=6;fontStyle=5;overflow=hidden;whiteSpace=wrap;html=1;" parent="gYlfex4-lGwqcM3bdDoX-61" vertex="1">
          <mxGeometry x="30" width="150" height="30" as="geometry">
            <mxRectangle width="150" height="30" as="alternateBounds" />
          </mxGeometry>
        </mxCell>
        <mxCell id="gYlfex4-lGwqcM3bdDoX-64" value="" style="shape=tableRow;horizontal=0;startSize=0;swimlaneHead=0;swimlaneBody=0;fillColor=none;collapsible=0;dropTarget=0;points=[[0,0.5],[1,0.5]];portConstraint=eastwest;top=0;left=0;right=0;bottom=0;" parent="gYlfex4-lGwqcM3bdDoX-60" vertex="1">
          <mxGeometry y="60" width="180" height="30" as="geometry" />
        </mxCell>
        <mxCell id="gYlfex4-lGwqcM3bdDoX-65" value="FK" style="shape=partialRectangle;connectable=0;fillColor=none;top=0;left=0;bottom=0;right=0;editable=1;overflow=hidden;whiteSpace=wrap;html=1;" parent="gYlfex4-lGwqcM3bdDoX-64" vertex="1">
          <mxGeometry width="30" height="30" as="geometry">
            <mxRectangle width="30" height="30" as="alternateBounds" />
          </mxGeometry>
        </mxCell>
        <mxCell id="gYlfex4-lGwqcM3bdDoX-66" value="foodId : int" style="shape=partialRectangle;connectable=0;fillColor=none;top=0;left=0;bottom=0;right=0;align=left;spacingLeft=6;overflow=hidden;whiteSpace=wrap;html=1;" parent="gYlfex4-lGwqcM3bdDoX-64" vertex="1">
          <mxGeometry x="30" width="150" height="30" as="geometry">
            <mxRectangle width="150" height="30" as="alternateBounds" />
          </mxGeometry>
        </mxCell>
        <mxCell id="gYlfex4-lGwqcM3bdDoX-67" value="" style="shape=tableRow;horizontal=0;startSize=0;swimlaneHead=0;swimlaneBody=0;fillColor=none;collapsible=0;dropTarget=0;points=[[0,0.5],[1,0.5]];portConstraint=eastwest;top=0;left=0;right=0;bottom=0;" parent="gYlfex4-lGwqcM3bdDoX-60" vertex="1">
          <mxGeometry y="90" width="180" height="30" as="geometry" />
        </mxCell>
        <mxCell id="gYlfex4-lGwqcM3bdDoX-68" value="FK" style="shape=partialRectangle;connectable=0;fillColor=none;top=0;left=0;bottom=0;right=0;editable=1;overflow=hidden;whiteSpace=wrap;html=1;" parent="gYlfex4-lGwqcM3bdDoX-67" vertex="1">
          <mxGeometry width="30" height="30" as="geometry">
            <mxRectangle width="30" height="30" as="alternateBounds" />
          </mxGeometry>
        </mxCell>
        <mxCell id="gYlfex4-lGwqcM3bdDoX-69" value="mealScheduleId : int" style="shape=partialRectangle;connectable=0;fillColor=none;top=0;left=0;bottom=0;right=0;align=left;spacingLeft=6;overflow=hidden;whiteSpace=wrap;html=1;" parent="gYlfex4-lGwqcM3bdDoX-67" vertex="1">
          <mxGeometry x="30" width="150" height="30" as="geometry">
            <mxRectangle width="150" height="30" as="alternateBounds" />
          </mxGeometry>
        </mxCell>
        <mxCell id="gYlfex4-lGwqcM3bdDoX-73" style="edgeStyle=orthogonalEdgeStyle;rounded=1;orthogonalLoop=1;jettySize=auto;html=1;exitX=1;exitY=0.5;exitDx=0;exitDy=0;entryX=0.489;entryY=1.006;entryDx=0;entryDy=0;entryPerimeter=0;endArrow=ERmandOne;endFill=0;startArrow=ERzeroToMany;startFill=0;" parent="1" source="gYlfex4-lGwqcM3bdDoX-64" target="gYlfex4-lGwqcM3bdDoX-37" edge="1">
          <mxGeometry relative="1" as="geometry">
            <Array as="points">
              <mxPoint x="1191" y="1147" />
            </Array>
          </mxGeometry>
        </mxCell>
        <mxCell id="gYlfex4-lGwqcM3bdDoX-74" style="edgeStyle=orthogonalEdgeStyle;rounded=1;orthogonalLoop=1;jettySize=auto;html=1;strokeColor=default;align=center;verticalAlign=middle;fontFamily=Helvetica;fontSize=11;fontColor=default;labelBackgroundColor=default;endArrow=ERoneToMany;endFill=0;entryX=1;entryY=0.5;entryDx=0;entryDy=0;exitX=0.5;exitY=0;exitDx=0;exitDy=0;startArrow=ERoneToMany;startFill=0;" parent="1" source="gYlfex4-lGwqcM3bdDoX-60" target="gYlfex4-lGwqcM3bdDoX-45" edge="1">
          <mxGeometry relative="1" as="geometry">
            <mxPoint x="886" y="1203" as="targetPoint" />
            <Array as="points">
              <mxPoint x="1070" y="957" />
            </Array>
          </mxGeometry>
        </mxCell>
        <mxCell id="gYlfex4-lGwqcM3bdDoX-83" value="Настройки" style="rounded=1;whiteSpace=wrap;html=1;absoluteArcSize=1;arcSize=14;strokeWidth=2;strokeColor=default;align=left;verticalAlign=top;fontFamily=Helvetica;fontSize=12;fontColor=default;fillColor=default;spacingTop=-7;spacing=11;" parent="1" vertex="1">
          <mxGeometry x="-470" y="1034" width="83" height="90" as="geometry" />
        </mxCell>
        <mxCell id="wHpDPJThd0jR1IswJE7X-1" value="User Flow Diagram" style="text;html=1;align=center;verticalAlign=middle;whiteSpace=wrap;rounded=0;fontSize=17;" vertex="1" parent="1">
          <mxGeometry x="-470" y="759" width="1109" height="30" as="geometry" />
        </mxCell>
      </root>
    </mxGraphModel>
  </diagram>
</mxfile>
